<?xml version="1.0" encoding="UTF-8" standalone="no"?>
<!DOCTYPE svg PUBLIC "-//W3C//DTD SVG 1.1//EN"
 "http://www.w3.org/Graphics/SVG/1.1/DTD/svg11.dtd">
<!-- Generated by graphviz version 2.43.0 (0)
 -->
<!-- Title: G Pages: 1 -->
<svg width="1912pt" height="395pt"
 viewBox="0.00 0.00 1911.54 394.71" xmlns="http://www.w3.org/2000/svg" xmlns:xlink="http://www.w3.org/1999/xlink">
<g id="graph0" class="graph" transform="scale(1 1) rotate(0) translate(4 390.71)">
<title>G</title><style>.edge>path:hover{stroke-width:8}</style>
<polygon fill="white" stroke="transparent" points="-4,4 -4,-390.71 1907.54,-390.71 1907.54,4 -4,4"/>
<!-- core -->
<g id="node1" class="node">
<title>core</title><style>.edge>path:hover{stroke-width:8}</style>
<ellipse fill="#b65353" stroke="black" cx="27" cy="-130.21" rx="27" ry="18"/>
<text text-anchor="middle" x="27" y="-127.71" font-family="Helvetica,sans-Serif" font-size="10.00" fill="#ffffff">core</text>
</g>
<!-- main_py -->
<g id="node27" class="node">
<title>main_py</title><style>.edge>path:hover{stroke-width:8}</style>
<ellipse fill="#4c6335" stroke="black" cx="695" cy="-18" rx="32.93" ry="18"/>
<text text-anchor="middle" x="695" y="-15.5" font-family="Helvetica,sans-Serif" font-size="10.00" fill="#ffffff">main.py</text>
</g>
<!-- core&#45;&gt;main_py -->
<g id="edge1" class="edge">
<title>core&#45;&gt;main_py</title><style>.edge>path:hover{stroke-width:8}</style>
<path fill="none" stroke="black" d="M46.39,-117.67C53.03,-114.27 60.63,-110.94 68,-109 135.48,-91.22 733.8,-131 695,-73"/>
<path fill="none" stroke="black" d="M695,-72C690,-64.52 688.82,-55.03 689.27,-46.15"/>
<polygon fill="#b65353" stroke="black" points="692.75,-46.5 690.41,-36.16 685.8,-45.7 692.75,-46.5"/>
</g>
<!-- core_bingx_authenticator -->
<g id="node2" class="node">
<title>core_bingx_authenticator</title><style>.edge>path:hover{stroke-width:8}</style>
<ellipse fill="#b65353" stroke="black" cx="502" cy="-365.49" rx="80.72" ry="21.43"/>
<text text-anchor="middle" x="502" y="-368.49" font-family="Helvetica,sans-Serif" font-size="10.00" fill="#ffffff">core.</text>
<text text-anchor="middle" x="502" y="-357.49" font-family="Helvetica,sans-Serif" font-size="10.00" fill="#ffffff">bingx_authenticator</text>
</g>
<!-- core_ccxt_client -->
<g id="node3" class="node">
<title>core_ccxt_client</title><style>.edge>path:hover{stroke-width:8}</style>
<ellipse fill="#cc3333" stroke="black" cx="502" cy="-287.07" rx="48.58" ry="21.43"/>
<text text-anchor="middle" x="502" y="-290.07" font-family="Helvetica,sans-Serif" font-size="10.00" fill="#ffffff">core.</text>
<text text-anchor="middle" x="502" y="-279.07" font-family="Helvetica,sans-Serif" font-size="10.00" fill="#ffffff">ccxt_client</text>
</g>
<!-- core_bingx_authenticator&#45;&gt;core_ccxt_client -->
<g id="edge2" class="edge">
<title>core_bingx_authenticator&#45;&gt;core_ccxt_client</title><style>.edge>path:hover{stroke-width:8}</style>
<path fill="none" stroke="black" d="M502,-344.01C502,-336.15 502,-327.01 502,-318.42"/>
<polygon fill="#b65353" stroke="black" points="505.5,-318.34 502,-308.34 498.5,-318.34 505.5,-318.34"/>
</g>
<!-- core_market_data_pipeline -->
<g id="node10" class="node">
<title>core_market_data_pipeline</title><style>.edge>path:hover{stroke-width:8}</style>
<ellipse fill="#ac4949" stroke="black" cx="458" cy="-130.21" rx="86.03" ry="21.43"/>
<text text-anchor="middle" x="458" y="-133.21" font-family="Helvetica,sans-Serif" font-size="10.00" fill="#ffffff">core.</text>
<text text-anchor="middle" x="458" y="-122.21" font-family="Helvetica,sans-Serif" font-size="10.00" fill="#ffffff">market_data_pipeline</text>
</g>
<!-- core_ccxt_client&#45;&gt;core_market_data_pipeline -->
<g id="edge3" class="edge">
<title>core_ccxt_client&#45;&gt;core_market_data_pipeline</title><style>.edge>path:hover{stroke-width:8}</style>
<path fill="none" stroke="black" d="M469.53,-271.14C453.28,-261.78 435.16,-248.02 426,-229.85 414.63,-207.31 425.32,-179.86 437.32,-159.65"/>
<polygon fill="#cc3333" stroke="black" points="440.28,-161.51 442.66,-151.19 434.36,-157.78 440.28,-161.51"/>
</g>
<!-- core_multi_exchange -->
<g id="node11" class="node">
<title>core_multi_exchange</title><style>.edge>path:hover{stroke-width:8}</style>
<ellipse fill="#b34c4c" stroke="black" cx="502" cy="-208.64" rx="67.35" ry="21.43"/>
<text text-anchor="middle" x="502" y="-211.64" font-family="Helvetica,sans-Serif" font-size="10.00" fill="#ffffff">core.</text>
<text text-anchor="middle" x="502" y="-200.64" font-family="Helvetica,sans-Serif" font-size="10.00" fill="#ffffff">multi_exchange</text>
</g>
<!-- core_ccxt_client&#45;&gt;core_multi_exchange -->
<g id="edge4" class="edge">
<title>core_ccxt_client&#45;&gt;core_multi_exchange</title><style>.edge>path:hover{stroke-width:8}</style>
<path fill="none" stroke="black" d="M502,-265.59C502,-257.73 502,-248.58 502,-239.99"/>
<polygon fill="#cc3333" stroke="black" points="505.5,-239.91 502,-229.91 498.5,-239.91 505.5,-239.91"/>
</g>
<!-- core_websocket_manager -->
<g id="node26" class="node">
<title>core_websocket_manager</title><style>.edge>path:hover{stroke-width:8}</style>
<ellipse fill="#ac4949" stroke="black" cx="814" cy="-208.64" rx="82.96" ry="21.43"/>
<text text-anchor="middle" x="814" y="-211.64" font-family="Helvetica,sans-Serif" font-size="10.00" fill="#ffffff">core.</text>
<text text-anchor="middle" x="814" y="-200.64" font-family="Helvetica,sans-Serif" font-size="10.00" fill="#ffffff">websocket_manager</text>
</g>
<!-- core_ccxt_client&#45;&gt;core_websocket_manager -->
<g id="edge5" class="edge">
<title>core_ccxt_client&#45;&gt;core_websocket_manager</title><style>.edge>path:hover{stroke-width:8}</style>
<path fill="none" stroke="black" d="M543.75,-275.84C595.5,-263.16 684.38,-241.39 746.02,-226.29"/>
<polygon fill="#cc3333" stroke="black" points="747.16,-229.62 756.04,-223.84 745.5,-222.82 747.16,-229.62"/>
</g>
<!-- core_circuit_breaker -->
<g id="node4" class="node">
<title>core_circuit_breaker</title><style>.edge>path:hover{stroke-width:8}</style>
<ellipse fill="#b65353" stroke="black" cx="650" cy="-208.64" rx="62.87" ry="21.43"/>
<text text-anchor="middle" x="650" y="-211.64" font-family="Helvetica,sans-Serif" font-size="10.00" fill="#ffffff">core.</text>
<text text-anchor="middle" x="650" y="-200.64" font-family="Helvetica,sans-Serif" font-size="10.00" fill="#ffffff">circuit_breaker</text>
</g>
<!-- core_production_coordinator -->
<g id="node18" class="node">
<title>core_production_coordinator</title><style>.edge>path:hover{stroke-width:8}</style>
<ellipse fill="#883a3a" stroke="black" cx="814" cy="-130.21" rx="91.43" ry="21.43"/>
<text text-anchor="middle" x="814" y="-133.21" font-family="Helvetica,sans-Serif" font-size="10.00" fill="#ffffff">core.</text>
<text text-anchor="middle" x="814" y="-122.21" font-family="Helvetica,sans-Serif" font-size="10.00" fill="#ffffff">production_coordinator</text>
</g>
<!-- core_circuit_breaker&#45;&gt;core_production_coordinator -->
<g id="edge6" class="edge">
<title>core_circuit_breaker&#45;&gt;core_production_coordinator</title><style>.edge>path:hover{stroke-width:8}</style>
<path fill="none" stroke="black" d="M685.59,-191.06C708.99,-180.15 739.93,-165.73 765.57,-153.78"/>
<polygon fill="#b65353" stroke="black" points="767.17,-156.9 774.75,-149.5 764.21,-150.55 767.17,-156.9"/>
</g>
<!-- core_exec_engine -->
<g id="node5" class="node">
<title>core_exec_engine</title><style>.edge>path:hover{stroke-width:8}</style>
<ellipse fill="#b34c4c" stroke="black" cx="164" cy="-130.21" rx="54.39" ry="21.43"/>
<text text-anchor="middle" x="164" y="-133.21" font-family="Helvetica,sans-Serif" font-size="10.00" fill="#ffffff">core.</text>
<text text-anchor="middle" x="164" y="-122.21" font-family="Helvetica,sans-Serif" font-size="10.00" fill="#ffffff">exec_engine</text>
</g>
<!-- core_exec_engine&#45;&gt;main_py -->
<g id="edge7" class="edge">
<title>core_exec_engine&#45;&gt;main_py</title><style>.edge>path:hover{stroke-width:8}</style>
<path fill="none" stroke="black" d="M202.95,-115.16C210.82,-112.76 219.11,-110.55 227,-109 278.18,-98.96 724,-116.35 695,-73"/>
</g>
<!-- core_execution_analytics -->
<g id="node6" class="node">
<title>core_execution_analytics</title><style>.edge>path:hover{stroke-width:8}</style>
<ellipse fill="#b65353" stroke="black" cx="1512" cy="-287.07" rx="79.81" ry="21.43"/>
<text text-anchor="middle" x="1512" y="-290.07" font-family="Helvetica,sans-Serif" font-size="10.00" fill="#ffffff">core.</text>
<text text-anchor="middle" x="1512" y="-279.07" font-family="Helvetica,sans-Serif" font-size="10.00" fill="#ffffff">execution_analytics</text>
</g>
<!-- core_live_trading_engine -->
<g id="node9" class="node">
<title>core_live_trading_engine</title><style>.edge>path:hover{stroke-width:8}</style>
<ellipse fill="#a44646" stroke="black" cx="1674" cy="-208.64" rx="79.81" ry="21.43"/>
<text text-anchor="middle" x="1674" y="-211.64" font-family="Helvetica,sans-Serif" font-size="10.00" fill="#ffffff">core.</text>
<text text-anchor="middle" x="1674" y="-200.64" font-family="Helvetica,sans-Serif" font-size="10.00" fill="#ffffff">live_trading_engine</text>
</g>
<!-- core_execution_analytics&#45;&gt;core_live_trading_engine -->
<g id="edge8" class="edge">
<title>core_execution_analytics&#45;&gt;core_live_trading_engine</title><style>.edge>path:hover{stroke-width:8}</style>
<path fill="none" stroke="black" d="M1549.57,-268.34C1572.7,-257.43 1602.52,-243.36 1627.18,-231.73"/>
<polygon fill="#b65353" stroke="black" points="1628.8,-234.83 1636.35,-227.4 1625.81,-228.5 1628.8,-234.83"/>
</g>
<!-- core_indicators -->
<g id="node7" class="node">
<title>core_indicators</title><style>.edge>path:hover{stroke-width:8}</style>
<ellipse fill="#c24747" stroke="black" cx="333" cy="-208.64" rx="45.92" ry="21.43"/>
<text text-anchor="middle" x="333" y="-211.64" font-family="Helvetica,sans-Serif" font-size="10.00" fill="#ffffff">core.</text>
<text text-anchor="middle" x="333" y="-200.64" font-family="Helvetica,sans-Serif" font-size="10.00" fill="#ffffff">indicators</text>
</g>
<!-- core_indicators&#45;&gt;core_market_data_pipeline -->
<g id="edge9" class="edge">
<title>core_indicators&#45;&gt;core_market_data_pipeline</title><style>.edge>path:hover{stroke-width:8}</style>
<path fill="none" stroke="black" d="M359.82,-191.24C376.78,-180.87 399.03,-167.27 418.06,-155.64"/>
<polygon fill="#c24747" stroke="black" points="420.11,-158.48 426.82,-150.28 416.46,-152.51 420.11,-158.48"/>
</g>
<!-- core_indicators&#45;&gt;main_py -->
<g id="edge10" class="edge">
<title>core_indicators&#45;&gt;main_py</title><style>.edge>path:hover{stroke-width:8}</style>
<path fill="none" stroke="black" d="M333.01,-187.08C334.23,-164.23 339.98,-128.07 363,-109 420.15,-61.66 736.24,-134.7 695,-73"/>
</g>
<!-- core_limits -->
<g id="node8" class="node">
<title>core_limits</title><style>.edge>path:hover{stroke-width:8}</style>
<ellipse fill="#b65353" stroke="black" cx="276" cy="-130.21" rx="40.06" ry="18"/>
<text text-anchor="middle" x="276" y="-127.71" font-family="Helvetica,sans-Serif" font-size="10.00" fill="#ffffff">core.limits</text>
</g>
<!-- core_limits&#45;&gt;main_py -->
<g id="edge11" class="edge">
<title>core_limits&#45;&gt;main_py</title><style>.edge>path:hover{stroke-width:8}</style>
<path fill="none" stroke="black" d="M303.88,-117.2C312.15,-114.07 321.32,-111.02 330,-109 369.7,-99.78 717.66,-106.87 695,-73"/>
</g>
<!-- core_live_trading_engine&#45;&gt;core_production_coordinator -->
<g id="edge12" class="edge">
<title>core_live_trading_engine&#45;&gt;core_production_coordinator</title><style>.edge>path:hover{stroke-width:8}</style>
<path fill="none" stroke="black" d="M1617.77,-193.35C1606.95,-191.04 1595.67,-188.91 1585,-187.43 1289.21,-146.21 1210.26,-189.11 914,-151.43 905.38,-150.33 896.4,-148.91 887.5,-147.34"/>
<polygon fill="#a44646" stroke="black" points="887.99,-143.87 877.52,-145.5 886.72,-150.75 887.99,-143.87"/>
</g>
<!-- core_market_data_pipeline&#45;&gt;main_py -->
<g id="edge13" class="edge">
<title>core_market_data_pipeline&#45;&gt;main_py</title><style>.edge>path:hover{stroke-width:8}</style>
<path fill="none" stroke="black" d="M521.11,-115.71C592.17,-100.3 697.5,-76.73 695,-73"/>
</g>
<!-- core_multi_exchange&#45;&gt;main_py -->
<g id="edge14" class="edge">
<title>core_multi_exchange&#45;&gt;main_py</title><style>.edge>path:hover{stroke-width:8}</style>
<path fill="none" stroke="black" d="M551.61,-194.28C599.9,-180.86 667.26,-160.85 676,-151.43 700.39,-125.14 714.94,-102.81 695,-73"/>
</g>
<!-- core_normalize -->
<g id="node12" class="node">
<title>core_normalize</title><style>.edge>path:hover{stroke-width:8}</style>
<ellipse fill="#b65353" stroke="black" cx="615" cy="-130.21" rx="52.28" ry="18"/>
<text text-anchor="middle" x="615" y="-127.71" font-family="Helvetica,sans-Serif" font-size="10.00" fill="#ffffff">core.normalize</text>
</g>
<!-- core_normalize&#45;&gt;main_py -->
<g id="edge15" class="edge">
<title>core_normalize&#45;&gt;main_py</title><style>.edge>path:hover{stroke-width:8}</style>
<path fill="none" stroke="black" d="M654.52,-118.31C681.01,-108.88 708.73,-93.53 695,-73"/>
</g>
<!-- core_notify -->
<g id="node13" class="node">
<title>core_notify</title><style>.edge>path:hover{stroke-width:8}</style>
<ellipse fill="#c24747" stroke="black" cx="123" cy="-208.64" rx="40.06" ry="18"/>
<text text-anchor="middle" x="123" y="-206.14" font-family="Helvetica,sans-Serif" font-size="10.00" fill="#ffffff">core.notify</text>
</g>
<!-- core_notify&#45;&gt;core_exec_engine -->
<g id="edge16" class="edge">
<title>core_notify&#45;&gt;core_exec_engine</title><style>.edge>path:hover{stroke-width:8}</style>
<path fill="none" stroke="black" d="M131.9,-191.06C136.74,-182.02 142.88,-170.59 148.48,-160.14"/>
<polygon fill="#c24747" stroke="black" points="151.58,-161.76 153.23,-151.29 145.42,-158.45 151.58,-161.76"/>
</g>
<!-- core_notify&#45;&gt;main_py -->
<g id="edge17" class="edge">
<title>core_notify&#45;&gt;main_py</title><style>.edge>path:hover{stroke-width:8}</style>
<path fill="none" stroke="black" d="M111.7,-191.35C98.17,-169.68 79.84,-131.49 101,-109 146.32,-60.85 731.77,-127.95 695,-73"/>
</g>
<!-- core_order_manager -->
<g id="node14" class="node">
<title>core_order_manager</title><style>.edge>path:hover{stroke-width:8}</style>
<ellipse fill="#b65353" stroke="black" cx="1674" cy="-287.07" rx="64.19" ry="21.43"/>
<text text-anchor="middle" x="1674" y="-290.07" font-family="Helvetica,sans-Serif" font-size="10.00" fill="#ffffff">core.</text>
<text text-anchor="middle" x="1674" y="-279.07" font-family="Helvetica,sans-Serif" font-size="10.00" fill="#ffffff">order_manager</text>
</g>
<!-- core_order_manager&#45;&gt;core_live_trading_engine -->
<g id="edge18" class="edge">
<title>core_order_manager&#45;&gt;core_live_trading_engine</title><style>.edge>path:hover{stroke-width:8}</style>
<path fill="none" stroke="black" d="M1674,-265.59C1674,-257.73 1674,-248.58 1674,-239.99"/>
<polygon fill="#b65353" stroke="black" points="1677.5,-239.91 1674,-229.91 1670.5,-239.91 1677.5,-239.91"/>
</g>
<!-- core_performance_monitor -->
<g id="node15" class="node">
<title>core_performance_monitor</title><style>.edge>path:hover{stroke-width:8}</style>
<ellipse fill="#b65353" stroke="black" cx="1001" cy="-208.64" rx="86.03" ry="21.43"/>
<text text-anchor="middle" x="1001" y="-211.64" font-family="Helvetica,sans-Serif" font-size="10.00" fill="#ffffff">core.</text>
<text text-anchor="middle" x="1001" y="-200.64" font-family="Helvetica,sans-Serif" font-size="10.00" fill="#ffffff">performance_monitor</text>
</g>
<!-- core_performance_monitor&#45;&gt;core_production_coordinator -->
<g id="edge19" class="edge">
<title>core_performance_monitor&#45;&gt;core_production_coordinator</title><style>.edge>path:hover{stroke-width:8}</style>
<path fill="none" stroke="black" d="M958.1,-190.11C930.97,-179.02 895.72,-164.61 866.87,-152.82"/>
<polygon fill="#b65353" stroke="black" points="867.93,-149.47 857.35,-148.93 865.28,-155.95 867.93,-149.47"/>
</g>
<!-- core_portfolio_manager -->
<g id="node16" class="node">
<title>core_portfolio_manager</title><style>.edge>path:hover{stroke-width:8}</style>
<ellipse fill="#b65353" stroke="black" cx="1181" cy="-208.64" rx="75.82" ry="21.43"/>
<text text-anchor="middle" x="1181" y="-211.64" font-family="Helvetica,sans-Serif" font-size="10.00" fill="#ffffff">core.</text>
<text text-anchor="middle" x="1181" y="-200.64" font-family="Helvetica,sans-Serif" font-size="10.00" fill="#ffffff">portfolio_manager</text>
</g>
<!-- core_portfolio_manager&#45;&gt;core_production_coordinator -->
<g id="edge20" class="edge">
<title>core_portfolio_manager&#45;&gt;core_production_coordinator</title><style>.edge>path:hover{stroke-width:8}</style>
<path fill="none" stroke="black" d="M1125.29,-194.07C1115.54,-191.79 1105.49,-189.49 1096,-187.43 1015.43,-169.89 994.86,-167.59 914,-151.43 906.43,-149.91 898.54,-148.33 890.65,-146.74"/>
<polygon fill="#b65353" stroke="black" points="891.19,-143.28 880.69,-144.73 889.8,-150.14 891.19,-143.28"/>
</g>
<!-- core_position_manager -->
<g id="node17" class="node">
<title>core_position_manager</title><style>.edge>path:hover{stroke-width:8}</style>
<ellipse fill="#b65353" stroke="black" cx="1830" cy="-287.07" rx="73.58" ry="21.43"/>
<text text-anchor="middle" x="1830" y="-290.07" font-family="Helvetica,sans-Serif" font-size="10.00" fill="#ffffff">core.</text>
<text text-anchor="middle" x="1830" y="-279.07" font-family="Helvetica,sans-Serif" font-size="10.00" fill="#ffffff">position_manager</text>
</g>
<!-- core_position_manager&#45;&gt;core_live_trading_engine -->
<g id="edge21" class="edge">
<title>core_position_manager&#45;&gt;core_live_trading_engine</title><style>.edge>path:hover{stroke-width:8}</style>
<path fill="none" stroke="black" d="M1794.21,-268.53C1772.13,-257.72 1743.6,-243.74 1719.87,-232.11"/>
<polygon fill="#b65353" stroke="black" points="1721.23,-228.88 1710.71,-227.62 1718.15,-235.17 1721.23,-228.88"/>
</g>
<!-- core_production_coordinator&#45;&gt;main_py -->
<g id="edge22" class="edge">
<title>core_production_coordinator&#45;&gt;main_py</title><style>.edge>path:hover{stroke-width:8}</style>
<path fill="none" stroke="black" d="M752.56,-114.43C730.76,-105.98 708.34,-92.94 695,-73"/>
</g>
<!-- core_regime -->
<g id="node19" class="node">
<title>core_regime</title><style>.edge>path:hover{stroke-width:8}</style>
<ellipse fill="#b65353" stroke="black" cx="967" cy="-130.21" rx="44.3" ry="18"/>
<text text-anchor="middle" x="967" y="-127.71" font-family="Helvetica,sans-Serif" font-size="10.00" fill="#ffffff">core.regime</text>
</g>
<!-- core_regime&#45;&gt;main_py -->
<g id="edge23" class="edge">
<title>core_regime&#45;&gt;main_py</title><style>.edge>path:hover{stroke-width:8}</style>
<path fill="none" stroke="black" d="M937.36,-116.7C929.83,-113.87 921.7,-111.08 914,-109 866.38,-96.15 722.42,-113.99 695,-73"/>
</g>
<!-- core_risk_manager -->
<g id="node20" class="node">
<title>core_risk_manager</title><style>.edge>path:hover{stroke-width:8}</style>
<ellipse fill="#b65353" stroke="black" cx="1333" cy="-208.64" rx="58.88" ry="21.43"/>
<text text-anchor="middle" x="1333" y="-211.64" font-family="Helvetica,sans-Serif" font-size="10.00" fill="#ffffff">core.</text>
<text text-anchor="middle" x="1333" y="-200.64" font-family="Helvetica,sans-Serif" font-size="10.00" fill="#ffffff">risk_manager</text>
</g>
<!-- core_risk_manager&#45;&gt;core_production_coordinator -->
<g id="edge24" class="edge">
<title>core_risk_manager&#45;&gt;core_production_coordinator</title><style>.edge>path:hover{stroke-width:8}</style>
<path fill="none" stroke="black" d="M1291.14,-193.67C1282.88,-191.3 1274.22,-189.07 1266,-187.43 1111.8,-156.57 1069.48,-175.03 914,-151.43 905.76,-150.17 897.16,-148.7 888.63,-147.13"/>
<polygon fill="#b65353" stroke="black" points="889.13,-143.66 878.66,-145.24 887.83,-150.54 889.13,-143.66"/>
</g>
<!-- core_sizing -->
<g id="node21" class="node">
<title>core_sizing</title><style>.edge>path:hover{stroke-width:8}</style>
<ellipse fill="#b65353" stroke="black" cx="1070" cy="-130.21" rx="40.74" ry="18"/>
<text text-anchor="middle" x="1070" y="-127.71" font-family="Helvetica,sans-Serif" font-size="10.00" fill="#ffffff">core.sizing</text>
</g>
<!-- core_sizing&#45;&gt;main_py -->
<g id="edge25" class="edge">
<title>core_sizing&#45;&gt;main_py</title><style>.edge>path:hover{stroke-width:8}</style>
<path fill="none" stroke="black" d="M1042.94,-116.71C1035.63,-113.76 1027.63,-110.92 1020,-109 949.55,-91.22 735.4,-133.4 695,-73"/>
</g>
<!-- core_state -->
<g id="node22" class="node">
<title>core_state</title><style>.edge>path:hover{stroke-width:8}</style>
<ellipse fill="#b65353" stroke="black" cx="1167" cy="-130.21" rx="38.03" ry="18"/>
<text text-anchor="middle" x="1167" y="-127.71" font-family="Helvetica,sans-Serif" font-size="10.00" fill="#ffffff">core.state</text>
</g>
<!-- core_state&#45;&gt;main_py -->
<g id="edge26" class="edge">
<title>core_state&#45;&gt;main_py</title><style>.edge>path:hover{stroke-width:8}</style>
<path fill="none" stroke="black" d="M1141.66,-116.55C1134.79,-113.61 1127.24,-110.81 1120,-109 1074.03,-97.49 721.35,-112.39 695,-73"/>
</g>
<!-- core_strategy_coordinator -->
<g id="node23" class="node">
<title>core_strategy_coordinator</title><style>.edge>path:hover{stroke-width:8}</style>
<ellipse fill="#b65353" stroke="black" cx="1493" cy="-208.64" rx="83.38" ry="21.43"/>
<text text-anchor="middle" x="1493" y="-211.64" font-family="Helvetica,sans-Serif" font-size="10.00" fill="#ffffff">core.</text>
<text text-anchor="middle" x="1493" y="-200.64" font-family="Helvetica,sans-Serif" font-size="10.00" fill="#ffffff">strategy_coordinator</text>
</g>
<!-- core_strategy_coordinator&#45;&gt;core_production_coordinator -->
<g id="edge27" class="edge">
<title>core_strategy_coordinator&#45;&gt;core_production_coordinator</title><style>.edge>path:hover{stroke-width:8}</style>
<path fill="none" stroke="black" d="M1434.33,-193.44C1423.31,-191.15 1411.84,-189.01 1401,-187.43 1186.24,-156.06 1129.01,-180.98 914,-151.43 905.52,-150.26 896.68,-148.82 887.92,-147.24"/>
<polygon fill="#b65353" stroke="black" points="888.55,-143.79 878.08,-145.41 887.27,-150.68 888.55,-143.79"/>
</g>
<!-- core_trailing -->
<g id="node24" class="node">
<title>core_trailing</title><style>.edge>path:hover{stroke-width:8}</style>
<ellipse fill="#b65353" stroke="black" cx="1267" cy="-130.21" rx="44.3" ry="18"/>
<text text-anchor="middle" x="1267" y="-127.71" font-family="Helvetica,sans-Serif" font-size="10.00" fill="#ffffff">core.trailing</text>
</g>
<!-- core_trailing&#45;&gt;main_py -->
<g id="edge28" class="edge">
<title>core_trailing&#45;&gt;main_py</title><style>.edge>path:hover{stroke-width:8}</style>
<path fill="none" stroke="black" d="M1238.31,-116.51C1230.56,-113.57 1222.08,-110.78 1214,-109 1157.55,-96.57 727.14,-121.05 695,-73"/>
</g>
<!-- core_websocket_client -->
<g id="node25" class="node">
<title>core_websocket_client</title><style>.edge>path:hover{stroke-width:8}</style>
<ellipse fill="#b65353" stroke="black" cx="814" cy="-287.07" rx="71.34" ry="21.43"/>
<text text-anchor="middle" x="814" y="-290.07" font-family="Helvetica,sans-Serif" font-size="10.00" fill="#ffffff">core.</text>
<text text-anchor="middle" x="814" y="-279.07" font-family="Helvetica,sans-Serif" font-size="10.00" fill="#ffffff">websocket_client</text>
</g>
<!-- core_websocket_client&#45;&gt;core_websocket_manager -->
<g id="edge29" class="edge">
<title>core_websocket_client&#45;&gt;core_websocket_manager</title><style>.edge>path:hover{stroke-width:8}</style>
<path fill="none" stroke="black" d="M814,-265.59C814,-257.73 814,-248.58 814,-239.99"/>
<polygon fill="#b65353" stroke="black" points="817.5,-239.91 814,-229.91 810.5,-239.91 817.5,-239.91"/>
</g>
<!-- core_websocket_manager&#45;&gt;core_production_coordinator -->
<g id="edge30" class="edge">
<title>core_websocket_manager&#45;&gt;core_production_coordinator</title><style>.edge>path:hover{stroke-width:8}</style>
<path fill="none" stroke="black" d="M814,-187.16C814,-179.3 814,-170.16 814,-161.57"/>
<polygon fill="#ac4949" stroke="black" points="817.5,-161.49 814,-151.49 810.5,-161.49 817.5,-161.49"/>
</g>
<!-- strategies -->
<g id="node28" class="node">
<title>strategies</title><style>.edge>path:hover{stroke-width:8}</style>
<ellipse fill="#53b6b6" stroke="black" cx="1367" cy="-130.21" rx="38.03" ry="18"/>
<text text-anchor="middle" x="1367" y="-127.71" font-family="Helvetica,sans-Serif" font-size="10.00" fill="#000000">strategies</text>
</g>
<!-- strategies&#45;&gt;main_py -->
<g id="edge31" class="edge">
<title>strategies&#45;&gt;main_py</title><style>.edge>path:hover{stroke-width:8}</style>
<path fill="none" stroke="black" d="M1341.69,-116.42C1334.82,-113.48 1327.26,-110.71 1320,-109 1252.3,-93.02 733.68,-130.82 695,-73"/>
</g>
<!-- strategies_oversold_bounce -->
<g id="node29" class="node">
<title>strategies_oversold_bounce</title><style>.edge>path:hover{stroke-width:8}</style>
<ellipse fill="#53b6b6" stroke="black" cx="1493" cy="-130.21" rx="70.01" ry="21.43"/>
<text text-anchor="middle" x="1493" y="-133.21" font-family="Helvetica,sans-Serif" font-size="10.00" fill="#000000">strategies.</text>
<text text-anchor="middle" x="1493" y="-122.21" font-family="Helvetica,sans-Serif" font-size="10.00" fill="#000000">oversold_bounce</text>
</g>
<!-- strategies_oversold_bounce&#45;&gt;main_py -->
<g id="edge32" class="edge">
<title>strategies_oversold_bounce&#45;&gt;main_py</title><style>.edge>path:hover{stroke-width:8}</style>
<path fill="none" stroke="black" d="M1444.01,-115.06C1434.14,-112.67 1423.8,-110.48 1414,-109 1374.46,-103.01 717.24,-106.24 695,-73"/>
</g>
<!-- strategies_short_the_rip -->
<g id="node30" class="node">
<title>strategies_short_the_rip</title><style>.edge>path:hover{stroke-width:8}</style>
<ellipse fill="#53b6b6" stroke="black" cx="1638" cy="-130.21" rx="56.64" ry="21.43"/>
<text text-anchor="middle" x="1638" y="-133.21" font-family="Helvetica,sans-Serif" font-size="10.00" fill="#000000">strategies.</text>
<text text-anchor="middle" x="1638" y="-122.21" font-family="Helvetica,sans-Serif" font-size="10.00" fill="#000000">short_the_rip</text>
</g>
<!-- strategies_short_the_rip&#45;&gt;main_py -->
<g id="edge33" class="edge">
<title>strategies_short_the_rip&#45;&gt;main_py</title><style>.edge>path:hover{stroke-width:8}</style>
<path fill="none" stroke="black" d="M1597.91,-115.15C1589.45,-112.69 1580.51,-110.45 1572,-109 1523.93,-100.79 722.11,-113.53 695,-73"/>
</g>
<!-- universe -->
<g id="node31" class="node">
<title>universe</title><style>.edge>path:hover{stroke-width:8}</style>
<ellipse fill="#8553b6" stroke="black" cx="1747" cy="-130.21" rx="34.96" ry="18"/>
<text text-anchor="middle" x="1747" y="-127.71" font-family="Helvetica,sans-Serif" font-size="10.00" fill="#ffffff">universe</text>
</g>
<!-- universe&#45;&gt;main_py -->
<g id="edge34" class="edge">
<title>universe&#45;&gt;main_py</title><style>.edge>path:hover{stroke-width:8}</style>
<path fill="none" stroke="black" d="M1724.42,-116.52C1718.01,-113.5 1710.89,-110.67 1704,-109 1649.48,-95.8 726.19,-119.62 695,-73"/>
</g>
</g>
</svg>
